<?xml version="1.0" encoding="UTF-8" standalone="no"?>
<!-- Created with Inkscape (http://www.inkscape.org/) -->

<svg
   width="210mm"
   height="297mm"
   viewBox="0 0 210 297"
   version="1.1"
   id="svg1"
   inkscape:version="1.4.2 (f4327f4, 2025-05-13)"
   sodipodi:docname="logo.svg"
   xmlns:inkscape="http://www.inkscape.org/namespaces/inkscape"
   xmlns:sodipodi="http://sodipodi.sourceforge.net/DTD/sodipodi-0.dtd"
   xmlns="http://www.w3.org/2000/svg"
   xmlns:svg="http://www.w3.org/2000/svg">
  <sodipodi:namedview
     id="namedview1"
     pagecolor="#ffffff"
     bordercolor="#000000"
     borderopacity="0.25"
     inkscape:showpageshadow="2"
     inkscape:pageopacity="0.0"
     inkscape:pagecheckerboard="0"
     inkscape:deskcolor="#d1d1d1"
     inkscape:document-units="mm"
     inkscape:zoom="0.50835204"
     inkscape:cx="217.36905"
     inkscape:cy="463.26164"
     inkscape:window-width="1920"
     inkscape:window-height="1009"
     inkscape:window-x="1912"
     inkscape:window-y="-8"
     inkscape:window-maximized="1"
     inkscape:current-layer="layer1" />
  <defs
     id="defs1" />
  <g
     inkscape:label="Camada 1"
     inkscape:groupmode="layer"
     id="layer1">
    <g
       id="g9"
       transform="translate(8.9455746,-2.2149405e-5)">
      <path
         id="path3"
         d="m 115.60393,69.972917 c 8.80385,3.589951 19.07312,9.853347 24.06666,22.090587 4.99477,12.237236 4.7138,30.449556 7.3713,41.639006 2.65749,11.19056 8.25222,15.35925 14.615,18.84528 6.36277,3.48627 13.49114,6.29014 18.42334,10.86138 4.93219,4.57111 7.66698,10.90972 5.35057,19.78448 -2.31519,8.87451 -9.68281,20.28493 -19.47112,25.10437 -9.78832,4.8192 -21.99857,3.04741 -31.68015,7.63411 -9.68158,4.58669 -14.40017,6.87513 -21.8176,12.01063 -7.41731,5.13561 -15.098649,4.46167 -20.280765,-2.7386 C 86.999171,218.00402 81.881344,212.93404 78.340348,206.0643 74.799351,199.19457 70.400374,199.18119 61.342068,194.11686 52.283762,189.05253 38.566004,178.93736 31.26697,168.39142 23.967814,157.84536 23.087135,146.86877 24.059219,139.22608 24.980754,91.789902 71.789486,52.414551 115.60381,69.972917"
         style="fill:#eceef4;fill-opacity:1;fill-rule:nonzero;stroke:none;stroke-width:0.0122691" />
      <g
         id="g7"
         transform="translate(-17.956308,13.532289)">
        <path
           id="path20"
           d="M 142.35385,84.402653 91.217056,135.61527 c -1.061158,1.06251 -1.19661,2.62928 -0.304398,3.51143 l 24.535332,24.28087 c 0.89197,0.88326 2.46451,0.73848 3.52517,-0.3239 L 170.1091,111.8708 c 1.06128,-1.0625 1.19747,-2.62927 0.3055,-3.51142 L 145.87877,84.078748 c -0.89196,-0.883378 -2.46487,-0.738603 -3.52492,0.323905"
           style="fill:#d5e5ff;fill-opacity:1;fill-rule:nonzero;stroke:none;stroke-width:0.0122691" />
        <path
           id="path21"
           d="m 122.19075,132.21549 c 4.67945,4.67945 12.26668,4.67945 16.94613,0 4.67945,-4.67945 4.67945,-12.26546 0,-16.94491 -4.67945,-4.67945 -12.26668,-4.67945 -16.94613,0 -4.6797,4.67945 -4.6797,12.26546 0,16.94491"
           style="fill:#aaccff;fill-opacity:1;fill-rule:nonzero;stroke:none;stroke-width:0.0122691" />
        <path
           id="path22"
           d="m 145.25673,109.15074 c 1.71645,1.71645 4.50032,1.71645 6.21677,0 1.71768,-1.71768 1.71768,-4.50155 0,-6.218 -1.71645,-1.71646 -4.50032,-1.71646 -6.21677,0 -1.71768,1.71645 -1.71768,4.50032 0,6.218"
           style="fill:#aaccff;fill-opacity:1;fill-rule:nonzero;stroke:none;stroke-width:0.0122691" />
        <path
           id="path23"
           d="m 116.07041,138.33657 c 1.71682,1.71645 1.71682,4.50032 0,6.21714 -1.71695,1.71682 -4.50057,1.71682 -6.21751,0 -1.71695,-1.71682 -1.71695,-4.50069 0,-6.21714 1.71694,-1.71768 4.50056,-1.71768 6.21751,0"
           style="fill:#aaccff;fill-opacity:1;fill-rule:nonzero;stroke:none;stroke-width:0.0122691" />
        <path
           id="path24"
           d="m 135.19358,126.13122 c 0,0.68953 -0.1779,1.30912 -0.53616,1.85878 -0.35213,0.54966 -0.87111,0.9803 -1.55573,1.29194 -0.40611,0.18404 -0.85761,0.31409 -1.35451,0.38893 -0.16318,0.0245 0.0945,1.54101 -0.20244,1.71277 -0.52635,0.30305 -1.34961,0.29814 -1.86737,-0.001 -0.24783,-0.24784 0.01,-1.69192 -0.17176,-1.72014 -0.6196,-0.0994 -1.16066,-0.28341 -1.62321,-0.55211 -0.51776,-0.3055 -0.94104,-0.71283 -1.2674,-1.22078 -0.32145,-0.51285 -0.48218,-1.01097 -0.48218,-1.49315 0,-0.27974 0.0957,-0.51899 0.28832,-0.71529 0.19631,-0.20244 0.44537,-0.30428 0.74597,-0.30428 0.24415,0 0.44905,0.0785 0.61468,0.23312 0.17054,0.15581 0.31655,0.38647 0.43556,0.6932 0.14477,0.36194 0.30059,0.66622 0.46622,0.90915 0.17177,0.24415 0.40979,0.44659 0.71652,0.60732 0.3055,0.15582 0.7067,0.23311 1.20483,0.23311 0.68462,0 1.23918,-0.15827 1.66492,-0.47481 0.43065,-0.32145 0.64536,-0.7202 0.64536,-1.19747 0,-0.37789 -0.11656,-0.68462 -0.34967,-0.91773 -0.22821,-0.23802 -0.52635,-0.41961 -0.89442,-0.54475 -0.36317,-0.12392 -0.85025,-0.25643 -1.46248,-0.3963 -0.81958,-0.19139 -1.50665,-0.41469 -2.06122,-0.66866 -0.54965,-0.26011 -0.98766,-0.60978 -1.31402,-1.05024 -0.32145,-0.4466 -0.48218,-0.99871 -0.48218,-1.65634 0,-0.62818 0.17054,-1.1852 0.51285,-1.67228 0.34231,-0.48831 0.92509,-0.93123 1.39255,-1.1668 0.46745,-0.23556 1.0895,-0.28955 1.28703,-0.3104 0.038,-0.005 0.011,-1.34348 0.0662,-1.72627 0.11165,-0.61346 2.1152,-0.45396 2.04404,0.10183 -0.0454,0.35581 -0.0172,1.59131 0.0491,1.63916 0.30427,0.0798 0.5153,0.1276 0.74596,0.2098 0.51285,0.17177 0.93737,0.40243 1.27477,0.69198 0.3374,0.28587 0.58401,0.58646 0.7386,0.90301 0.15582,0.31532 0.23434,0.6245 0.23434,0.92509 0,0.27483 -0.0994,0.52389 -0.29569,0.74719 -0.19262,0.21717 -0.4331,0.32636 -0.72388,0.32636 -0.26378,0 -0.46622,-0.065 -0.60609,-0.19508 -0.13496,-0.13373 -0.28342,-0.35212 -0.44414,-0.65272 -0.20735,-0.43064 -0.45642,-0.76436 -0.74597,-1.00361 -0.29078,-0.24416 -0.757,-0.36562 -1.39991,-0.36562 -0.59628,0 -1.07845,0.1325 -1.44653,0.39629 -0.36317,0.26011 -0.54475,0.57297 -0.54475,0.94227 0,0.22821 0.0626,0.42451 0.18649,0.59015 0.12392,0.16686 0.29569,0.30918 0.51285,0.42819 0.21839,0.11901 0.43801,0.21226 0.66131,0.27974 0.2233,0.0675 0.59137,0.16563 1.10422,0.29568 0.6429,0.15091 1.22446,0.31655 1.74222,0.49813 0.52389,0.18158 0.96803,0.4012 1.32997,0.66131 0.36931,0.25887 0.65395,0.58769 0.85639,0.98766 0.20735,0.39384 0.31041,0.87847 0.31041,1.45389"
           style="fill:#ffffff;fill-opacity:1;fill-rule:nonzero;stroke:none;stroke-width:0.0122691" />
      </g>
      <g
         id="g6"
         transform="translate(-34.877087,-2.6452325)">
        <path
           id="path25"
           d="M 117.16371,78.044785 81.024468,140.74868 c -0.750136,1.30053 -0.47543,2.84828 0.614929,3.47008 l 29.983573,17.10306 c 1.09011,0.62217 2.57161,0.0754 3.32125,-1.22532 l 36.13912,-62.703282 c 0.74965,-1.300528 0.47605,-2.848894 -0.61468,-3.470939 L 120.48484,76.820324 c -1.08986,-0.623272 -2.57149,-0.07607 -3.32113,1.224461"
           style="fill:#80b3ff;fill-opacity:1;fill-rule:nonzero;stroke:none;stroke-width:0.0122691" />
        <path
           id="path26"
           d="m 110.0627,129.44757 c 5.73116,3.30899 13.05927,1.34593 16.36826,-4.38499 3.30899,-5.73214 1.34592,-13.0605 -4.38622,-16.36948 -5.73067,-3.30776 -13.05902,-1.3447 -16.36789,4.38621 -3.30886,5.73092 -1.34531,13.05928 4.38585,16.36826"
           style="fill:#5599ff;fill-opacity:1;fill-rule:nonzero;stroke:none;stroke-width:0.0122691" />
        <path
           id="path27"
           d="m 126.37329,101.19788 c 2.10171,1.21464 4.7911,0.49322 6.00452,-1.608486 1.21465,-2.10293 0.49445,-4.792326 -1.60848,-6.005744 -2.10293,-1.214644 -4.7911,-0.494446 -6.00575,1.608485 -1.21341,2.10293 -0.49322,4.792326 1.60971,6.005745"
           style="fill:#5599ff;fill-opacity:1;fill-rule:nonzero;stroke:none;stroke-width:0.0122691" />
        <path
           id="path29"
           d="m 118.78348,123.4038 c -0.34488,0.5975 -0.80964,1.04533 -1.39426,1.34224 -0.58021,0.29937 -1.24446,0.41347 -1.99276,0.33985 -0.44451,-0.0429 -0.90043,-0.15581 -1.36764,-0.33862 -0.15434,-0.0614 -0.68854,1.38027 -1.03208,1.38027 -0.60781,0 -1.31795,-0.41592 -1.61707,-0.93368 -0.0907,-0.33863 0.8554,-1.46002 0.71198,-1.57658 -0.48709,-0.39507 -0.8635,-0.82449 -1.12938,-1.28826 -0.29605,-0.52512 -0.45849,-1.08827 -0.48733,-1.69192 -0.0217,-0.60486 0.088,-1.11649 0.32906,-1.53364 0.13999,-0.24293 0.34231,-0.4012 0.60696,-0.47604 0.27176,-0.0773 0.53788,-0.0405 0.79835,0.11042 0.21103,0.12147 0.34955,0.29201 0.41543,0.50917 0.0704,0.22085 0.0807,0.49322 0.0312,0.81713 -0.0558,0.38647 -0.0728,0.72756 -0.0509,1.02201 0.0264,0.29569 0.13177,0.59015 0.3163,0.88216 0.18722,0.28832 0.49641,0.55701 0.92742,0.80485 0.59272,0.34231 1.15232,0.48341 1.67867,0.42206 0.53346,-0.0638 0.91944,-0.30182 1.15796,-0.71406 0.18931,-0.32882 0.24121,-0.6515 0.15581,-0.97049 -0.0784,-0.32023 -0.24575,-0.62696 -0.50242,-0.91896 -0.25213,-0.28955 -0.60818,-0.64659 -1.06803,-1.07478 -0.61358,-0.57542 -1.09698,-1.11158 -1.45045,-1.60971 -0.34636,-0.49935 -0.55089,-1.02079 -0.61334,-1.56677 -0.0554,-0.54598 0.0815,-1.10545 0.41065,-1.67474 0.31372,-0.54352 0.74069,-0.94104 1.28078,-1.19256 0.53996,-0.25029 1.26642,-0.34353 1.78896,-0.31409 0.52266,0.0294 1.08827,0.29446 1.2701,0.37421 0.0355,0.0172 0.68143,-1.15698 0.92031,-1.46125 0.40341,-0.47605 2.05888,0.66376 1.7194,1.11035 -0.21741,0.28588 -0.80964,1.36924 -0.77725,1.44408 0.22379,0.22207 0.38218,0.3693 0.54082,0.55457 0.359,0.40488 0.61186,0.81712 0.75848,1.23795 0.14895,0.4147 0.21275,0.79872 0.18943,1.15085 -0.0245,0.3509 -0.11042,0.65763 -0.26133,0.91773 -0.13741,0.23802 -0.34709,0.40488 -0.62928,0.49935 -0.27508,0.092 -0.53825,0.0663 -0.78977,-0.0797 -0.22894,-0.13128 -0.37175,-0.28833 -0.42807,-0.47114 -0.0494,-0.18404 -0.0685,-0.4466 -0.0573,-0.78768 0.0356,-0.47604 -0.0128,-0.89074 -0.14503,-1.24164 -0.12956,-0.35703 -0.47285,-0.69566 -1.02962,-1.01711 -0.51641,-0.29814 -1.00018,-0.42451 -1.4512,-0.37911 -0.44389,0.0429 -0.75798,0.22329 -0.94202,0.54229 -0.1141,0.19754 -0.15876,0.39875 -0.13398,0.60487 0.0248,0.20612 0.10171,0.4147 0.23066,0.62695 0.12907,0.21226 0.27323,0.40366 0.43261,0.57297 0.15938,0.17054 0.42893,0.43924 0.80866,0.80854 0.48169,0.4515 0.90166,0.88583 1.25992,1.30298 0.3628,0.41838 0.63652,0.83062 0.82129,1.23673 0.18919,0.40856 0.27152,0.83676 0.24698,1.28335 -0.0173,0.44537 -0.16993,0.91651 -0.45776,1.41586"
           style="fill:#ffffff;fill-opacity:1;fill-rule:nonzero;stroke:none;stroke-width:0.0122691" />
      </g>
      <g
         id="g5"
         transform="translate(45.020885,18.216543)">
        <path
           id="path31"
           d="m 34.201994,118.49 61.328401,0.054 c 1.272064,0 2.291875,1.01098 2.286231,2.26488 l -0.152628,34.4731 c -0.0053,1.25366 -1.034288,2.26193 -2.306476,2.26071 l -61.3284,-0.054 c -1.272187,-6.1e-4 -2.291998,-1.01134 -2.286477,-2.26488 l 0.152873,-34.4726 c 0.0049,-1.25391 1.034166,-2.26243 2.306476,-2.26121"
           style="fill:#f7c560;fill-opacity:1;fill-rule:nonzero;stroke:none;stroke-width:0.0122691" />
        <path
           id="path32"
           d="m 91.631262,123.83567 -5.875937,0.0393 c -0.755043,0.005 -1.371935,0.71652 -1.3831,1.59499 l -0.07214,5.66589 c -0.01117,0.87847 0.587691,1.58272 1.342612,1.57781 l 5.876059,-0.0393 c 0.755043,-0.005 1.371812,-0.71652 1.3831,-1.59499 l 0.07214,-5.66589 c 0.01116,-0.87847 -0.587692,-1.58272 -1.342735,-1.57781"
           style="fill:#2c5aa0;fill-opacity:1;fill-rule:nonzero;stroke:none;stroke-width:0.0122691" />
        <path
           id="path33"
           d="m 72.593851,130.31009 -28.291533,0.1092 c -0.575177,0.002 -1.030853,-0.56193 -1.021896,-1.26986 l 0.002,-0.14968 c 0.009,-0.70793 0.479232,-1.28213 1.054287,-1.28335 l 28.291655,-0.1092 c 0.575177,-0.002 1.030976,0.56193 1.021897,1.26986 l -0.0018,0.14968 c -0.0091,0.70793 -0.479355,1.28213 -1.054532,1.28335"
           style="fill:#ffffff;fill-opacity:1;fill-rule:nonzero;stroke:none;stroke-width:0.0122691" />
        <path
           id="path34"
           d="m 91.457654,137.8004 -8.082787,0.0528 c -0.676275,0.005 -1.228755,0.64168 -1.238693,1.42936 l -0.0022,0.16686 c -0.01006,0.78645 0.526346,1.41708 1.202621,1.41217 l 8.082787,-0.0528 c 0.676275,-0.004 1.228754,-0.64168 1.238692,-1.42813 l 0.0022,-0.16809 c 0.01006,-0.78645 -0.526346,-1.41708 -1.202621,-1.41218"
           style="fill:#ffffff;fill-opacity:1;fill-rule:nonzero;stroke:none;stroke-width:0.0122691" />
        <path
           id="path35"
           d="m 76.284531,137.89978 -8.082787,0.0528 c -0.676275,0.005 -1.228754,0.64168 -1.238815,1.42936 l -0.0021,0.16686 c -0.01006,0.78768 0.526346,1.41708 1.202499,1.4134 l 8.082909,-0.054 c 0.676275,-0.004 1.228754,-0.64168 1.238692,-1.42813 l 0.0022,-0.16809 c 0.0099,-0.78645 -0.526346,-1.41708 -1.202621,-1.41218"
           style="fill:#ffffff;fill-opacity:1;fill-rule:nonzero;stroke:none;stroke-width:0.0122691" />
        <path
           id="path36"
           d="m 61.111531,137.99916 -8.08291,0.0528 c -0.676275,0.005 -1.228631,0.64168 -1.238692,1.42936 l -0.0021,0.16686 c -0.01006,0.78768 0.526224,1.41708 1.202499,1.4134 l 8.082909,-0.054 c 0.676152,-0.004 1.228632,-0.64168 1.238692,-1.42813 l 0.0021,-0.16686 c 0.01006,-0.78768 -0.526223,-1.41831 -1.202498,-1.41341"
           style="fill:#ffffff;fill-opacity:1;fill-rule:nonzero;stroke:none;stroke-width:0.0122691" />
        <path
           id="path37"
           d="m 45.938285,138.09854 -8.082786,0.0528 c -0.676275,0.005 -1.228755,0.64168 -1.238693,1.42936 l -0.0022,0.16686 c -0.01006,0.78768 0.526346,1.41708 1.202621,1.4134 l 8.082787,-0.0528 c 0.676275,-0.005 1.228754,-0.6429 1.238692,-1.42935 l 0.0022,-0.16686 c 0.01006,-0.78768 -0.526346,-1.41831 -1.202621,-1.41341"
           style="fill:#ffffff;fill-opacity:1;fill-rule:nonzero;stroke:none;stroke-width:0.0122691" />
        <path
           id="path38"
           d="m 45.02816,149.12764 c -0.0108,0.84547 -0.367338,1.65867 -0.991223,2.26059 -0.623886,0.60193 -1.464077,0.94325 -2.335677,0.9489 -1.814973,0.0119 -3.26813,-1.40568 -3.245678,-3.16642 0.02245,-1.76062 1.511926,-3.19759 3.3269,-3.20961 0.8716,-0.006 1.703202,0.32476 2.311874,0.91859 0.608672,0.59383 0.944601,1.40249 0.933804,2.24795"
           style="fill:#2c5aa0;fill-opacity:1;fill-rule:nonzero;stroke:none;stroke-width:0.0122691" />
      </g>
      <path
         id="path47"
         d="m 78.169071,91.409559 c -0.0067,0.523892 -0.227347,1.026927 -0.613212,1.398682 -0.38611,0.372982 -0.905831,0.584011 -1.445059,0.587692 -1.122749,0.0074 -2.021709,-0.869882 -2.007845,-1.959382 0.01374,-1.0895 0.935277,-1.977785 2.058148,-1.985147 0.539229,-0.0037 1.053551,0.201214 1.430214,0.568061 0.37654,0.366848 0.584379,0.867428 0.577754,1.390094"
         style="fill:#5599ff;fill-opacity:1;fill-rule:nonzero;stroke:none;stroke-width:0.0122691" />
      <g
         id="g3"
         transform="translate(-234.73316,5.7251992)">
        <path
           id="path98"
           d="m 268.50825,83.066976 c 8.02136,4.619422 8.42498,-1.283646 12.61337,-0.871518 3.24598,0.320439 6.21027,4.998466 9.27477,2.552167 4.99374,-3.986107 0.23253,18.679025 -6.64793,18.679025 l -8.72557,-0.004 c -6.99956,-0.004 -10.59055,-22.702943 -6.51464,-20.355894"
           style="fill:#aaccff;fill-opacity:1;fill-rule:nonzero;stroke:none;stroke-width:0.00945247" />
        <path
           id="path99"
           d="m 287.60602,105.5147 -17.0948,0.13801 c -8.70478,-4.55609 -55.28749,73.90319 -11.33351,84.41235 l 38.64926,-0.009 c 47.48354,-0.011 0.52461,-92.401297 -10.22095,-84.54157"
           style="fill:#aaccff;fill-opacity:1;fill-rule:nonzero;stroke:none;stroke-width:0.00945247" />
        <path
           id="path100"
           d="m 268.64247,100.41226 22.44489,0.11721 c 1.87726,0.009 3.4114,1.41503 3.43975,3.15051 l 0.006,0.36864 c 0.0274,1.73548 -1.46136,3.12499 -3.33956,3.11459 l -22.44489,-0.11626 c -1.87726,-0.009 -3.4114,-1.41504 -3.43976,-3.15051 l -0.006,-0.36865 c -0.0274,-1.73547 1.46136,-3.12498 3.33956,-3.11553"
           style="fill:#3771c8;fill-opacity:1;fill-rule:nonzero;stroke:none;stroke-width:0.00945247" />
        <path
           id="path101"
           d="m 289.85287,153.26244 c 0,1.55616 -0.40362,2.95437 -1.21086,4.19462 -0.7959,1.24026 -1.96612,2.21141 -3.51065,2.91335 -0.91689,0.41704 -1.93587,0.71016 -3.05598,0.87955 -0.3696,0.0559 0.21268,3.47568 -0.45845,3.86332 -1.18723,0.68578 -3.04464,0.67387 -4.21391,-0.001 -0.55864,-0.55902 0.0246,-3.81776 -0.38661,-3.88345 -1.39802,-0.22317 -2.61833,-0.63795 -3.66094,-1.24432 -1.17021,-0.69032 -2.12397,-1.60881 -2.86126,-2.7554 -0.725,-1.1584 -1.08798,-2.28164 -1.08798,-3.36981 0,-0.6318 0.21646,-1.17002 0.64939,-1.61467 0.44426,-0.45627 1.00574,-0.68445 1.68443,-0.68445 0.55013,0 1.01235,0.17553 1.38667,0.5265 0.38661,0.35107 0.71366,0.87171 0.98306,1.56202 0.328,0.81906 0.67869,1.50351 1.053,2.05346 0.38567,0.54994 0.92446,1.00621 1.61449,1.36891 0.69003,0.35106 1.59746,0.5265 2.72042,0.5265 1.54453,0 2.79604,-0.35683 3.75546,-1.07049 0.97172,-0.72548 1.45757,-1.6264 1.45757,-2.70284 0,-0.85413 -0.26372,-1.54444 -0.79022,-2.07104 -0.51516,-0.53813 -1.18723,-0.9477 -2.0181,-1.22844 -0.81953,-0.28084 -1.91886,-0.57925 -3.29986,-0.89515 -1.8489,-0.43293 -3.39911,-0.93599 -4.65062,-1.50937 -1.24016,-0.58502 -2.22889,-1.37477 -2.96618,-2.36936 -0.72501,-1.00612 -1.08798,-2.25224 -1.08798,-3.73826 0,-1.4157 0.38566,-2.67354 1.15793,-3.77333 0.77226,-1.09989 2.0871,-2.10063 3.142,-2.63261 1.05489,-0.5318 2.45858,-0.65269 2.90474,-0.701 0.087,-0.009 0.0255,-3.03084 0.14935,-3.89403 0.25144,-1.38583 4.77255,-1.02588 4.61281,0.22922 -0.10304,0.80355 -0.0378,3.58976 0.10964,3.69856 0.68814,0.18101 1.1636,0.28962 1.68349,0.47414 1.15793,0.38613 2.11735,0.90687 2.87828,1.56202 0.75998,0.64352 1.31578,1.32221 1.66647,2.03587 0.35163,0.71376 0.5265,1.40993 0.5265,2.08852 0,0.62018 -0.22213,1.18175 -0.6664,1.68491 -0.43292,0.49143 -0.97738,0.7371 -1.63244,0.7371 -0.59645,0 -1.05301,-0.14623 -1.36872,-0.43869 -0.30437,-0.30428 -0.63804,-0.79571 -1.00007,-1.4743 -0.46884,-0.97115 -1.03032,-1.72583 -1.68538,-2.26406 -0.65505,-0.54985 -1.70806,-0.82482 -3.15901,-0.82482 -1.34509,0 -2.43401,0.29832 -3.26394,0.89505 -0.81953,0.58502 -1.22882,1.29291 -1.22882,2.1236 0,0.51487 0.1399,0.95942 0.42063,1.33383 0.28169,0.37442 0.66735,0.69618 1.15888,0.96529 0.49153,0.26911 0.98873,0.47981 1.4916,0.6319 0.50287,0.15209 1.33374,0.37432 2.49261,0.66687 1.45096,0.33934 2.76107,0.71376 3.93129,1.12324 1.18155,0.40957 2.18163,0.90677 3.00116,1.49179 0.83087,0.58501 1.47364,1.32797 1.93019,2.22898 0.4679,0.8892 0.70232,1.98323 0.70232,3.2819"
           style="fill:#3771c8;fill-opacity:1;fill-rule:nonzero;stroke:none;stroke-width:0.00945247" />
      </g>
      <g
         id="g83"
         transform="matrix(0.02887701,0,0,0.02887701,140.60567,158.66874)">
        <path
           id="path5-7"
           d="m -592.40041,1292.0771 306.03199,-285.4933 c 5.34534,-4.9867 15.26,-1.6534 20.58,5.3866 5.31867,7.04 3.968,15.04 -1.37733,20.0267 l -306.03199,285.4947 c -5.34534,4.9866 -15.26134,1.6493 -20.58,-5.392 -5.32,-7.0414 -3.968,-15.0414 1.37733,-20.0227"
           style="fill:#aaccff;fill-opacity:1;fill-rule:nonzero;stroke:none;stroke-width:0.133333" />
        <path
           id="path6-1"
           d="m -654.71774,1786.7131 -2.67333,-246.9187 c -0.36534,-33.744 36.80399,-60.2253 82.70133,-59.3706 45.89733,0.8546 82.62666,28.712 82.99199,62.456 l 2.67334,246.9199 c 0.36533,33.7454 -36.804,60.2254 -82.7,59.3707 -45.89733,-0.8547 -82.628,-28.712 -82.99333,-62.4573"
           style="fill:#80b3ff;fill-opacity:1;fill-rule:nonzero;stroke:none;stroke-width:0.133333" />
        <path
           id="path7-1"
           d="m -317.22708,1786.7131 -2.672,-502.8227 c -0.18,-33.7466 36.80266,-60.2133 82.7,-59.36 45.89733,0.8534 82.81333,28.7067 82.99333,62.4534 l 2.67333,502.8159 c 0.17867,33.7454 -36.804,60.2254 -82.70133,59.3707 -45.89733,-0.8547 -82.81333,-28.7107 -82.99333,-62.4573"
           style="fill:#80b3ff;fill-opacity:1;fill-rule:nonzero;stroke:none;stroke-width:0.133333" />
        <path
           id="path8-5"
           d="m 20.260909,1786.7131 -2.666667,-395.2653 c -0.226667,-33.7454 36.799999,-60.2254 82.693328,-59.3707 45.90667,0.8547 82.77333,28.7107 83,62.456 l 2.66667,395.2666 c 0.22666,33.7454 -36.8,60.2254 -82.69333,59.3707 -45.906669,-0.8547 -82.773335,-28.7107 -83.000001,-62.4573"
           style="fill:#80b3ff;fill-opacity:1;fill-rule:nonzero;stroke:none;stroke-width:0.133333" />
        <path
           id="path9-2"
           d="m 357.75423,1786.7131 -2.68,-743.876 c -0.12,-33.7467 36.81334,-60.22666 82.70667,-59.37333 45.89333,0.85333 82.86666,28.70663 82.98666,62.45333 l 2.68,743.8826 c 0.12,33.7467 -36.8,60.2254 -82.70666,59.3707 -45.89333,-0.8547 -82.86667,-28.7107 -82.98667,-62.4573"
           style="fill:#80b3ff;fill-opacity:1;fill-rule:nonzero;stroke:none;stroke-width:0.133333" />
        <path
           id="path10-7"
           d="m -623.66841,1286.3171 c 0,12.988 5.316,25.4413 14.78,34.6227 9.46267,9.1813 22.29733,14.34 35.68133,14.34 27.86934,0 50.46134,-21.92 50.46134,-48.9627 0,-27.04 -22.592,-48.96 -50.46134,-48.96 -13.384,0 -26.21866,5.16 -35.68133,14.3467 -9.464,9.1733 -14.78,21.6266 -14.78,34.6133"
           style="fill:#3771c8;fill-opacity:1;fill-rule:nonzero;stroke:none;stroke-width:0.133333" />
        <path
           id="path11-6"
           d="M -223.56042,989.38377 91.260907,1120.6504 c 6.746666,2.8134 10.173333,11.4934 7.506666,19.9067 -2.653333,8.4133 -10.373333,13.28 -17.119999,10.4667 L -233.17909,1019.7571 c -6.74533,-2.8133 -10.17599,-11.4933 -7.51199,-19.90666 2.664,-8.41334 10.38399,-13.28 17.13066,-10.46667"
           style="fill:#aaccff;fill-opacity:1;fill-rule:nonzero;stroke:none;stroke-width:0.133333" />
        <path
           id="path12-1"
           d="m -286.17775,1008.6238 c 0,12.9866 5.316,25.44 14.78,34.6266 9.464,9.1734 22.29867,14.3334 35.68133,14.3334 27.86933,0 50.46133,-21.92 50.46133,-48.96 0,-27.04003 -22.592,-48.9467 -50.46133,-48.9467 -13.38266,0 -26.21733,5.14667 -35.68133,14.33334 -9.464,9.18666 -14.78,21.64 -14.78,34.61336"
           style="fill:#3771c8;fill-opacity:1;fill-rule:nonzero;stroke:none;stroke-width:0.133333" />
        <path
           id="path13-4"
           d="M 92.247574,1133.0371 429.00757,740.09044 c 4.75999,-5.56 14.18666,-5.88 21.26666,-0.61333 7.08,5.26666 9.05333,14.06666 4.29333,19.61333 L 117.82091,1152.0371 c -4.76,5.5467 -14.18667,5.8667 -21.26667,0.6 -7.093333,-5.2667 -9.066666,-14.0533 -4.306666,-19.6"
           style="fill:#aaccff;fill-opacity:1;fill-rule:nonzero;stroke:none;stroke-width:0.133333" />
        <path
           id="path14-2"
           d="m 51.314241,1141.4904 c 0,12.9867 5.32,25.44 14.773333,34.6134 9.466667,9.1866 22.306666,14.3466 35.679996,14.3466 27.88,0 50.46667,-21.92 50.46667,-48.96 0,-27.04 -22.58667,-48.96 -50.46667,-48.96 -13.37333,0 -26.213329,5.16 -35.679996,14.3334 -9.453333,9.1866 -14.773333,21.64 -14.773333,34.6266"
           style="fill:#3771c8;fill-opacity:1;fill-rule:nonzero;stroke:none;stroke-width:0.133333" />
        <path
           id="path15-3"
           d="m 388.79423,758.50377 c 0,12.98667 5.32,25.44 14.78667,34.62667 9.46667,9.17333 22.29333,14.33333 35.68,14.33333 27.86666,0 50.46666,-21.92 50.46666,-48.96 0,-27.02666 -22.6,-48.94666 -50.46666,-48.94666 -13.38667,0 -26.21333,5.14667 -35.68,14.33333 -9.46667,9.18667 -14.78667,21.64 -14.78667,34.61333"
           style="fill:#3771c8;fill-opacity:1;fill-rule:nonzero;stroke:none;stroke-width:0.133333" />
        <path
           id="path16-2"
           d="m -833.02307,1521.3398 19.22933,15.9293 c 9.75467,8.0773 10.93467,22.2507 2.64534,31.7773 l -349.1,401.296 c -8.288,9.5267 -22.8133,10.6933 -32.564,2.616 l -19.2333,-15.9293 c -9.7547,-8.0787 -10.9334,-22.252 -2.6454,-31.7787 l 349.10136,-401.296 c 8.288,-9.5266 22.812,-10.6933 32.56667,-2.6146"
           style="fill:#ffb380;fill-opacity:1;fill-rule:nonzero;stroke:none;stroke-width:0.133333" />
        <path
           id="path17-2"
           d="m -387.19908,1515.8171 c -54.38267,62.5147 -131.76666,101.5733 -215.12533,108.584 -83.36,7.012 -165.86666,-18.5987 -229.37199,-71.1987 -63.504,-52.5986 -102.804,-127.876 -109.25467,-209.2733 -6.44933,-81.3987 20.47867,-162.252 74.86267,-224.7587 113.24666,-130.1733 312.25332,-146.91996 444.49465,-37.3866 63.50533,52.6 102.80533,127.88 109.256,209.28 6.44933,81.392 -20.47867,162.24 -74.86133,224.7533"
           style="fill:#ffffff;fill-opacity:1;fill-rule:nonzero;stroke:none;stroke-width:0.133333" />
        <path
           id="path18-1"
           d="m -563.57774,982.9971 c -118.75067,-23.73333 -247.36666,15.18667 -331.636,112.0533 -122.57336,140.8934 -105.91996,352.212 37.46934,470.9774 143.39066,118.7653 359.78532,100.476 482.35865,-40.424 122.57467,-140.8987 105.924,-352.22 -37.468,-470.98 -44.80933,-37.1067 -96.74799,-60.84003 -150.72533,-71.6267 z m -11.1,51.08 c 45.444,9.12 89.19866,29.1867 127.03866,60.5333 121.09466,100.2934 135.23733,277.6294 31.31867,397.0867 -103.91867,119.456 -285.54266,134.64 -406.63466,34.3453 -121.09466,-100.2973 -135.236,-277.632 -31.316,-397.0853 71.44533,-82.12 179.61333,-114.9733 279.59466,-94.88"
           style="fill:#ffb380;fill-opacity:1;fill-rule:nonzero;stroke:none;stroke-width:0.133333" />
        <path
           id="path19-6"
           d="m -907.38173,1607.0598 c -58.64267,-39.608 -96.48797,47.6426 -130.03597,78.72 -60.6454,78.5639 -141.068,145.9746 -191.9094,230.1493 -13.3333,51.1466 70.884,107.288 119.6187,40.7946 77.7787,-96.2973 170.864,-183.596 240.644,-284.6359 7.968,-28.852 -16.748,-50.1867 -38.31733,-65.028"
           style="fill:#ffb380;fill-opacity:1;fill-rule:nonzero;stroke:none;stroke-width:0.133333" />
      </g>
      <g
         id="g8"
         transform="matrix(1.0296367,0,0,1.0296367,-3.5644076,-7.8119929)">
        <g
           id="g2"
           transform="matrix(0.38662634,0,0,0.38662634,93.702974,127.50012)">
          <path
             id="path55"
             d="m 13.204547,149.82435 -125.726477,0.20108 c 0,0 -0.45509,38.12223 -0.45509,71.06109 0,6.39234 4.30742,18.21392 21.043199,18.21392 l 84.2786166,-0.0127 c 17.0250567,-0.003 20.8597514,-12.56806 20.8597514,-19.06129 0,-36.88045 0,-70.4021 0,-70.4021"
             style="fill:#aaccff;fill-opacity:1;fill-rule:nonzero;stroke:none;stroke-width:0.0352778" />
          <path
             id="path56"
             d="m 13.204547,214.3594 -125.726477,-0.20108 c 0,0 -0.45509,-38.12223 -0.45509,-71.06109 0,-6.39233 4.30742,-18.21392 21.043199,-18.21392 l 84.2786166,0.0127 c 17.0250567,0.003 20.8597514,12.56806 20.8597514,19.06129 0,36.88045 0,70.4021 0,70.4021"
             style="fill:#3771c8;fill-opacity:1;fill-rule:nonzero;stroke:none;stroke-width:0.0352778" />
          <path
             id="path57"
             d="m -13.66301,164.01978 26.049112,-0.072 c 10.36814,-0.0286 10.283473,23.41069 0.119945,23.31438 l -26.045585,-0.24695 c -10.428112,-0.0991 -9.913056,-22.96865 -0.123472,-22.99546"
             style="fill:#aaccff;fill-opacity:1;fill-rule:nonzero;stroke:none;stroke-width:0.0352778" />
          <path
             id="path58"
             d="m -3.9933708,175.45648 c -0.021167,1.47884 -0.6420556,2.90089 -1.7356668,3.95358 -1.0900834,1.05234 -2.5611668,1.64959 -4.0851669,1.65947 -3.1714725,0.0208 -5.7150005,-2.45851 -5.6761945,-5.53756 0.04233,-3.07904 2.645833,-5.59223 5.8208334,-5.61304 1.5240001,-0.01 2.9774446,0.56797 4.0428336,1.60619 1.0618612,1.03858 1.6510001,2.45287 1.6333612,3.93136"
             style="fill:#3771c8;fill-opacity:1;fill-rule:nonzero;stroke:none;stroke-width:0.0352778" />
        </g>
        <g
           id="g4"
           transform="translate(-214.68445,-39.583937)">
          <path
             id="path102"
             d="m 275.42425,253.84638 c 0,7.84593 6.36057,14.20621 14.20612,14.20621 7.84649,0 14.20706,-6.36028 14.20706,-14.20621 0,-7.84593 -6.36057,-14.2063 -14.20706,-14.2063 -7.84555,0 -14.20612,6.36037 -14.20612,14.2063"
             style="fill:#f7c560;fill-opacity:1;fill-rule:nonzero;stroke:none;stroke-width:0.00945247" />
          <path
             id="path103"
             d="m 277.79682,253.84638 c 0,6.53553 5.29811,11.83374 11.83355,11.83374 6.53638,0 11.83449,-5.29821 11.83449,-11.83374 0,-6.53563 -5.29811,-11.83373 -11.83449,-11.83373 -6.53544,0 -11.83355,5.2981 -11.83355,11.83373"
             style="fill:#f7c560;fill-opacity:1;fill-rule:nonzero;stroke:none;stroke-width:0.00945247" />
          <path
             id="path104"
             d="m 294.19119,256.25062 c 0,0.69428 -0.1796,1.31805 -0.53974,1.8713 -0.35541,0.55335 -0.87719,0.98656 -1.56627,1.29981 -0.4093,0.18603 -0.86302,0.31685 -1.36305,0.39228 -0.16542,0.0249 0.0945,1.55068 -0.20417,1.72366 -0.53029,0.30588 -1.35927,0.30059 -1.8801,-4.8e-4 -0.24955,-0.24945 0.0104,-1.70324 -0.17298,-1.73254 -0.62386,-0.0995 -1.16833,-0.28461 -1.63339,-0.55514 -0.52177,-0.30796 -0.94714,-0.71773 -1.27608,-1.2293 -0.32328,-0.51676 -0.48586,-1.01784 -0.48586,-1.50332 0,-0.28187 0.0974,-0.52196 0.29019,-0.72037 0.1985,-0.20351 0.44899,-0.30531 0.75147,-0.30531 0.24577,0 0.45183,0.0783 0.6182,0.23489 0.17298,0.15653 0.31854,0.38887 0.43859,0.69684 0.14651,0.36533 0.30342,0.67074 0.46979,0.91603 0.17298,0.24539 0.41307,0.449 0.72028,0.61073 0.30815,0.15663 0.71271,0.23499 1.21369,0.23499 0.68909,0 1.24773,-0.15928 1.67593,-0.47764 0.43292,-0.32365 0.64938,-0.72557 0.64938,-1.20585 0,-0.38103 -0.11721,-0.68899 -0.35163,-0.92388 -0.2297,-0.24009 -0.53028,-0.42281 -0.90082,-0.54815 -0.36487,-0.12525 -0.85545,-0.25834 -1.47175,-0.39927 -0.8252,-0.19312 -1.51618,-0.41761 -2.07482,-0.6734 -0.55391,-0.26098 -0.9944,-0.61337 -1.32334,-1.05697 -0.32422,-0.44899 -0.48586,-1.00489 -0.48586,-1.6678 0,-0.63161 0.17203,-1.19271 0.51705,-1.68339 0.34407,-0.49077 0.93107,-0.93721 1.4018,-1.17447 0.46979,-0.23735 1.09649,-0.29123 1.29593,-0.31278 0.0388,-0.004 0.0113,-1.35217 0.0662,-1.73727 0.11249,-0.61828 2.12964,-0.45759 2.0578,0.10228 -0.0454,0.35853 -0.0161,1.60153 0.0492,1.65002 0.3072,0.0808 0.51894,0.12922 0.75052,0.21155 0.51705,0.17222 0.94525,0.40456 1.28459,0.69683 0.33935,0.28717 0.587,0.58993 0.74391,0.90829 0.15691,0.31846 0.23442,0.62906 0.23442,0.93173 0,0.27668 -0.0993,0.52726 -0.2968,0.75166 -0.19378,0.2193 -0.43671,0.32895 -0.72879,0.32895 -0.26561,0 -0.46979,-0.0653 -0.61063,-0.19576 -0.13517,-0.13574 -0.28452,-0.35494 -0.44615,-0.65771 -0.2089,-0.4333 -0.45939,-0.76999 -0.75148,-1.01009 -0.29208,-0.24529 -0.76187,-0.36798 -1.40936,-0.36798 -0.60023,0 -1.08609,0.13309 -1.45662,0.39937 -0.36582,0.26088 -0.54825,0.57669 -0.54825,0.94732 0,0.2297 0.0624,0.4281 0.18811,0.59513 0.12571,0.16702 0.29775,0.31051 0.51705,0.43065 0.21929,0.12005 0.44048,0.21401 0.66545,0.28188 0.22402,0.0679 0.59456,0.16702 1.11161,0.29747 0.64749,0.15142 1.23166,0.31845 1.75438,0.50117 0.5265,0.18262 0.97266,0.40456 1.33847,0.66554 0.37054,0.26099 0.65789,0.59249 0.86112,0.9944 0.2089,0.39663 0.31288,0.88476 0.31288,1.4641"
             style="fill:#ffffff;fill-opacity:1;fill-rule:nonzero;stroke:none;stroke-width:0.00945247" />
          <path
             id="path105"
             d="m 277.79682,253.84638 c 0,6.53553 5.29811,11.83374 11.83355,11.83374 6.53638,0 11.83449,-5.29821 11.83449,-11.83374 0,-6.53563 -5.29811,-11.83373 -11.83449,-11.83373 -6.53544,0 -11.83355,5.2981 -11.83355,11.83373"
             style="fill:#f7c560;fill-opacity:1;fill-rule:nonzero;stroke:none;stroke-width:0.00945247" />
          <path
             id="path106"
             d="m 294.19119,256.25062 c 0,0.69428 -0.1796,1.31805 -0.53974,1.8713 -0.35541,0.55335 -0.87719,0.98656 -1.56627,1.29981 -0.4093,0.18603 -0.86302,0.31685 -1.36305,0.39228 -0.16542,0.0249 0.0945,1.55068 -0.20417,1.72366 -0.53029,0.30588 -1.35927,0.30059 -1.8801,-4.8e-4 -0.24955,-0.24945 0.0104,-1.70324 -0.17298,-1.73254 -0.62386,-0.0995 -1.16833,-0.28461 -1.63339,-0.55514 -0.52177,-0.30796 -0.94714,-0.71773 -1.27608,-1.2293 -0.32328,-0.51676 -0.48586,-1.01784 -0.48586,-1.50332 0,-0.28187 0.0974,-0.52196 0.29019,-0.72037 0.1985,-0.20351 0.44899,-0.30531 0.75147,-0.30531 0.24577,0 0.45183,0.0783 0.6182,0.23489 0.17298,0.15653 0.31854,0.38887 0.43859,0.69684 0.14651,0.36533 0.30342,0.67074 0.46979,0.91603 0.17298,0.24539 0.41307,0.449 0.72028,0.61073 0.30815,0.15663 0.71271,0.23499 1.21369,0.23499 0.68909,0 1.24773,-0.15928 1.67593,-0.47764 0.43292,-0.32365 0.64938,-0.72557 0.64938,-1.20585 0,-0.38103 -0.11721,-0.68899 -0.35163,-0.92388 -0.2297,-0.24009 -0.53028,-0.42281 -0.90082,-0.54815 -0.36487,-0.12525 -0.85545,-0.25834 -1.47175,-0.39927 -0.8252,-0.19312 -1.51618,-0.41761 -2.07482,-0.6734 -0.55391,-0.26098 -0.9944,-0.61337 -1.32334,-1.05697 -0.32422,-0.44899 -0.48586,-1.00489 -0.48586,-1.6678 0,-0.63161 0.17203,-1.19271 0.51705,-1.68339 0.34407,-0.49077 0.93107,-0.93721 1.4018,-1.17447 0.46979,-0.23735 1.09649,-0.29123 1.29593,-0.31278 0.0388,-0.004 0.0113,-1.35217 0.0662,-1.73727 0.11249,-0.61828 2.12964,-0.45759 2.0578,0.10228 -0.0454,0.35853 -0.0161,1.60153 0.0492,1.65002 0.3072,0.0808 0.51894,0.12922 0.75052,0.21155 0.51705,0.17222 0.94525,0.40456 1.28459,0.69683 0.33935,0.28717 0.587,0.58993 0.74391,0.90829 0.15691,0.31846 0.23442,0.62906 0.23442,0.93173 0,0.27668 -0.0993,0.52726 -0.2968,0.75166 -0.19378,0.2193 -0.43671,0.32895 -0.72879,0.32895 -0.26561,0 -0.46979,-0.0653 -0.61063,-0.19576 -0.13517,-0.13574 -0.28452,-0.35494 -0.44615,-0.65771 -0.2089,-0.4333 -0.45939,-0.76999 -0.75148,-1.01009 -0.29208,-0.24529 -0.76187,-0.36798 -1.40936,-0.36798 -0.60023,0 -1.08609,0.13309 -1.45662,0.39937 -0.36582,0.26088 -0.54825,0.57669 -0.54825,0.94732 0,0.2297 0.0624,0.4281 0.18811,0.59513 0.12571,0.16702 0.29775,0.31051 0.51705,0.43065 0.21929,0.12005 0.44048,0.21401 0.66545,0.28188 0.22402,0.0679 0.59456,0.16702 1.11161,0.29747 0.64749,0.15142 1.23166,0.31845 1.75438,0.50117 0.5265,0.18262 0.97266,0.40456 1.33847,0.66554 0.37054,0.26099 0.65789,0.59249 0.86112,0.9944 0.2089,0.39663 0.31288,0.88476 0.31288,1.4641"
             style="fill:#ffffff;fill-opacity:1;fill-rule:nonzero;stroke:none;stroke-width:0.00945247" />
        </g>
      </g>
    </g>
  </g>
</svg>
<svg xmlns="http://www.w3.org/2000/svg" viewBox="0 0 210 297"><path d="M124.55 69.97c8.8 3.59 19.07 9.85 24.07 22.09 4.99 12.24 4.71 30.45 7.37 41.64 2.66 11.19 8.25 15.36 14.61 18.84 6.37 3.49 13.5 6.29 18.43 10.86 4.93 4.58 7.66 10.91 5.35 19.79-2.32 8.87-9.68 20.28-19.47 25.1-9.79 4.82-22 3.05-31.68 7.63-9.68 4.59-14.4 6.88-21.82 12.01-7.41 5.14-15.1 4.46-20.28-2.74-5.18-7.2-10.3-12.27-13.84-19.14-3.54-6.87-7.94-6.88-17-11.94-9.05-5.07-22.77-15.18-30.07-25.73-7.3-10.54-8.18-21.52-7.2-29.16.92-47.43 47.73-86.81 91.54-69.25z" fill="#eceef4"/><g transform="translate(-17.96 13.53)"><path d="m142.35 84.4-51.13 51.21c-1.06 1.07-1.2 2.63-.3 3.52l24.53 24.28c.89.88 2.46.74 3.53-.32l51.14-51.21c1.06-1.07 1.2-2.63.3-3.52L145.88 84.08c-.89-.89-2.46-.74-3.52.32z" fill="#d5e5ff"/><path d="M122.19 132.22a12 12 0 0 0 16.95 0 12 12 0 0 0 0-16.95 12 12 0 0 0-16.95 0 12 12 0 0 0 0 16.95z" fill="#aaccff"/><path d="M145.26 109.15a4.4 4.4 0 0 0 6.21 0 4.4 4.4 0 0 0 0-6.21 4.4 4.4 0 0 0-6.21 0 4.4 4.4 0 0 0 0 6.21z" fill="#aaccff"/><path d="M116.07 138.34a4.4 4.4 0 1 0 0 6.21 4.4 4.4 speechless 0 0 0 0-6.21z" fill="#aaccff"/><path d="M135.19 126.13c0 .69-.18 1.31-.54 1.86-.35.55-.87.98-1.55 1.29-.4.18-.86.31-1.36.39-.16.02.1 1.54-.2 1.71-.53.3-1.35.3-1.87 0-.25-.25.01-1.69-.17-1.72-.62-.1-1.16-.28-1.62-.55-.52-.3-1-.71-1.27-1.22-.32-.51-.48-1.01-.48-1.49 0-.28.1-.52.29-.72.2-.2.44-.3.74-.3.25 0 .45.08.62.23.17.16.31.39.43.69.15.36.3.67.47.91.17.24.41.45.71.61.31.15.71.23 1.21.23.68 0 1.24-.16 1.66-.47.43-.33.65-.72.65-1.2 0-.38-.12-.68-.35-.91-.23-.24-.53-.42-.89-.55-.37-.12-.85-.25-1.47-.4-.82-.19-1.5-.41-2.06-.67-.55-.26-.99-.61-1.31-1.05-.33-.44-.49-1-.49-1.65 0-.63.17-1.19.51-1.68.34-.48.93-.93 1.4-1.16.46-.24 1.08-.29 1.28-.31.04 0 .01-1.34.07-1.72.11-.62 2.11-.46 2.04.1-.04.36-.01 1.6.05 1.64.3.08.51.13.74.21.52.17.94.4 1.28.69.33.29.58.59.73.9.16.32.24.63.24.93 0 .27-.1.52-.3.74-.19.22-.43.33-.72.33-.27 0-.47-.06-.61-.2-.13-.13-.28-.35-.44-.65-.21-.43-.46-.77-.75-1-.29-.25-.76-.37-1.4-.37-.6 0-1.08.13-1.45.4-.36.26-.54.57-.54.94 2.22 0 .06.43.19.59.12.17.3.31.51.43.22.12.44.21.66.28.23.07.59.16 1.1.3.65.15 1.23.31 1.75.5.52.18.96.4 1.33.66.37.26.65.59.85.99.21.39.31.88.31 1.45z" fill="#fff"/></g><g transform="translate(-34.88 -2.65)"><path d="m117.16 78.04-36.14 62.7c-.75 1.3-.47 2.85.62 3.47l29.98 17.1c1.09.62 2.57.08 3.32-1.22l36.14-62.7c.75-1.3.48-2.85-.61-3.47L120.48 76.82c-1.09-.62-2.57-.08-3.32 1.22z" fill="#80b3ff"/><path d="M110.06 129.45c5.73 3.31 13.06 1.35 16.37-4.38 3.31-5.74 1.35-13.06-4.38-16.37-5.73-3.3-13.06-1.34-16.37 4.38-3.3 5.73-1.34 13.06 4.38 16.37z" fill="#5599ff"/><path d="M126.37 101.2c2.1 1.21 4.79.49 6-1.61 1.22-2.1.5-4.79-1.6-6-2.1-1.22-4.8-.5-6 1.6-1.22 2.1-.5 4.8 1.6 6z" fill="#5599ff"/><path d="M118.78 123.4c-.34.6-.81 1.05-1.4 1.34-.58.3-1.24.41-1.99.34-.45-.04-.9-.16-1.37-.34-.15-.06-.69 1.38-1.03 1.38-.61 0-1.32-.41-1.62-.93-.09-.34.85-1.46.71-1.58-.48-.39-.86-.82-1.13-1.28-.3-.53-.46-1.09-.49-1.7-.02-.6.09-1.11.33-1.53.14-.24.34-.4.61-.48.27-.07.54-.04.8.11.21.12.35.29.41.51.07.22.08.49.03.81-.05.39-.07.73-.05 1.02.03.3.13.59.32.88.18.29.5.56.92.81.59.34 1.15.48 1.68.42.53-.06.92-.3 1.16-.71.19-.33.24-.65.15-.97-.08-.32-.25-.63-.5-.92-.26-.29-.61-.65-1.07-1.07-.61-.58-1.1-1.11-1.45-1.61-.35-.5-.55-1.02-.61-1.57-.06-.54.08-1.1.41-1.67.31-.55.74-.94 1.28-1.19.54-.25 1.27-.35 1.79-.32.52.03 1.09.29 1.27.37.03.02.68-1.15.92-1.46.4-.48 2.06.66 1.72 1.11-.22.29-.81 1.37-.78 1.44.23.22.38.37.54.56.36.4.61.81.76 1.23.15.42.21.8.19 1.15-.03.35-.11.66-.26.92-.14.24-.35.4-.63.5-.27.09-.54.06-.79-.08-.23-.13-.37-.29-.43-.47-.05-.18-.07-.45-.06-.79.03-.47-.02-.89-.15-1.24-.13-.36-.47-.7-1.03-1.02-.51-.3-1-.42-1.45-.38-.44.05-.76.22-.94.54-.12.2-.16.4-.13.6.03.21.1.42.23.63.13.21.27.4.43.57.16.17.43.44.81.81.48.45.9.88 1.26 1.3.36.42.63.83.82 1.24.19.4.27.83.25 1.28-.02.45-.17.92-.46 1.42z" fill="#fff"/></g><g transform="translate(45.02 18.22)"><path d="m34.2 118.49 61.33.05c1.27 0 2.29 1.01 2.29 2.27l-.15 34.47c0 1.25-1.03 2.26-2.3 2.26l-61.33-.05c-1.27 0-2.29-1.01-2.29-2.27l.15-34.47c.01-1.26 1.03-2.26 2.3-2.26z" fill="#f7c560"/><path d="m91.63 123.84-5.88.04c-.75 0-1.37.71-1.38 1.6l-.07 5.66c-.01.88.59 1.58 1.34 1.58l5.88-.04c.75 0 1.37-.72 1.38-1.6l.07-5.66c.01-.88-.59-1.58-1.34-1.58z" fill="#2c5aa0"/><path d="m72.6 130.31-28.3.11c-.57 0-1.03-.56-1.02-1.27l0-.15c.01-.71.48-1.28 1.05-1.28l28.3-.11c.57 0 1.03.56 1.02 1.27l0 .15c-.01.71-.48 1.28-1.05 1.28z" fill="#fff"/><path d="m91.46 137.8-8.08.05c-.68 0-1.23.64-1.24 1.43l0 .17c-.01.78.52 1.41 1.2 1.41l8.08-.05c.68 0 1.23-.64 1.24-1.43l0-.17c.01-.78-.52-1.41-1.2-1.41z" fill="#fff"/><path d="m76.28 137.9-8.08.05c-.68 0-1.23.64-1.24 1.43l0 .17c-.01.78.52 1.41 1.2 1.41l8.08-.05c.68 0 1.23-.64 1.24-1.43l0-.17c0-.78-.53-1.41-1.2-1.41z" fill="#fff"/><path d="m61.11 138-8.08.05c-.68 0-1.23.64-1.24 1.43l0 .17c-.01.78.52 1.41 1.2 1.41l8.08-.05c.68 0 1.23-.64 1.24-1.43l0-.17c.01-.78-.52-1.42-1.2-1.41z" fill="#fff"/><path d="m45.94 138.1-8.08.05c-.68 0-1.23.64-1.24 1.43l0 .17c-.01.78.52 1.41 1.2 1.41l8.08-.05c.68 0 1.23-.64 1.24-1.43l0-.17c.01-.78-.52-1.42-1.2-1.41z" fill="#fff"/><path d="M45.03 149.13c-.01.84-.37 1.66-.99 2.26-.63.6-1.47.94-2.34.95-1.81.01-3.27-1.4-3.24-3.17.02-1.76 1.51-3.2 3.33-3.21.87 0 1.7.32 2.31.92.61.59.95 1.4.93 2.25z" fill="#2c5aa0"/></g><path d="M78.17 91.41c-.01.52-.23 1.03-.61 1.4-.39.37-.9.58-1.45.59-1.12.01-2.02-.87-2.01-1.96.02-1.09.93-1.98 2.06-1.98.54 0 1.05.2 1.43.57.38.36.58.86.58 1.38z" fill="#5599ff"/><g transform="translate(-234.73 5.73)"><path d="M268.51 83.07c8.02 4.62 8.42-1.28 12.61-.87 3.25.32 6.21 5 9.28 2.55 4.99-3.98.23 18.68-6.65 18.68l-8.72-.01c-7 0-10.6-22.7-6.52-20.35z" fill="#aaccff"/><path d="m287.6 105.51-17.1.14c-8.7-4.56-55.28 73.9-11.33 84.41l38.65 0c47.48 0 .52-92.4-10.22-84.55z" fill="#aaccff"/><path d="m268.64 100.41 22.45.12c1.87 0 3.41 1.41 3.44 3.15l0 .37c.03 1.73-1.46 3.12-3.34 3.11l-22.44-.11c-1.88 0-3.41-1.41-3.44-3.15l0-.37c-.03-1.74 1.46-3.13 3.34-3.12z" fill="#3771c8"/><path d="M289.85 153.26c0 1.56-.4 2.95-1.21 4.2-.8 1.24-1.97 2.21-3.51 2.91-.92.42-1.94.71-3.06.88-.37.06.21 3.47-.46 3.86-1.19.69-3.04.67-4.21 0-.56-.56.02-3.82-.39-3.88-1.4-.23-2.62-.64-3.66-1.25-1.17-.69-2.12-1.6-2.86-2.75-.73-1.16-1.09-2.28-1.09-3.37 0-.63.22-1.17.65-1.61.44-.46 1.01-.69 1.68-.69.55 0 1.01.17 1.39.52.38.35.71.87.98 1.56.33.82.68 1.5 1.05 2.05.39.55.93 1.01 1.62 1.37.69.35 1.6.53 2.72.53 1.54 0 2.8-.36 3.75-1.07.97-.73 1.46-1.63 1.46-2.7 0-.86-.27-1.55-.79-2.07-.52-.54-1.19-.95-2.02-1.23-.82-.28-1.92-.58-3.3-.9-1.85-.43-3.4-.93-4.65-1.5-1.24-.59-2.23-1.38-2.97-2.37-.72-1.01-1.09-2.25-1.09-3.74 0-1.41.38-2.67 1.16-3.77.77-1.1 2.08-2.1 3.14-2.63 1.05-.53 2.46-.65 2.9-.7.09-.01.03-3.03.15-3.9.25-1.38 4.77-1.02 4.61.23-.1.8-.04 3.59.11 3.7.69.18 1.16.29 1.68.47 1.16.39 2.12.91 2.88 1.56.76.65 1.31 1.32 1.66 2.04.35.71.53 1.41.53 2.09 0 .62-.22 1.18-.66 1.68-.44.5-1 .74-1.64.74-.6 0-1.05-.15-1.37-.44-.3-.3-.64-.8-1-.1.47-.47-.97-1.03-1.73-1.68-2.26-.66-.55-1.71-.83-3.16-.83-1.34 0-2.43.3-3.26.9-.82.58-1.23 1.29-1.23 2.12 0 .52.14.96.42 1.34.28.37.67.7 1.16.96.49.27.99.48 1.49.63.5.15 1.34.38 2.5.67 1.45.34 2.76.71 3.93 1.12 1.18.41 2.18.91 3 1.49.83.59 1.48 1.33 1.93 2.23.47.89.7 1.98.7 3.28z" fill="#3771c8"/></g><g transform="matrix(.02888 0 0 .02888 140.6 158.67)"><path d="m-592.4 1292.08 306.03-285.49c5.35-4.99 15.26-1.65 20.58 5.39s3.97 15.04-1.38 20.02l-306.03 285.5c-5.35 4.98-15.26 1.65-20.58-5.39-5.32-7.04-3.97-15.04 1.38-20.03z" fill="#aaccff"/><path d="m-654.72 1786.71-2.67-246.92c-.37-33.74 36.8-60.22 82.7-59.37 45.9.85 82.62 28.71 82.99 62.45l2.67 246.92c.37 33.75-36.8 60.23-82.7 59.37-45.9-.85-82.63-28.71-83-62.45z" fill="#80b3ff"/><path d="m-317.23 1786.71-2.67-502.82c-.18-33.75 36.8-60.21 82.7-59.36 45.9.85 82.81 28.71 82.99 62.45l2.67 502.82c.18 33.74-36.8 60.22-82.7 59.37-45.9-.86-82.81-28.71-83-62.46z" fill="#80b3ff"/><path d="m20.26 1786.71-2.67-395.26c-.22-33.75 36.8-60.23 82.7-59.37 45.9.86 82.77 28.71 83 62.45l2.67 395.27c.22 33.74-36.8 60.22-82.7 59.37-45.9-.86-82.77-28.71-83-62.46z" fill="#80b3ff"/><path d="m357.75 1786.71-2.68-743.88c-.12-33.74 36.81-60.22 82.7-59.37 45.9.85 82.87 28.71 83 62.45l2.68 743.88c.12 33.75-36.8 60.23-82.7 59.37-45.9-.85-82.87-28.71-83-62.45z" fill="#80b3ff"/><path d="M-623.67 1286.32c0 12.99 5.32 25.44 14.78 34.62 9.46 9.18 22.3 14.34 35.68 14.34 27.87 0 50.46-21.92 50.46-48.96s-22.59-48.96-50.46-48.96c-13.38 0-26.22 5.16-35.68 14.34-9.47 9.18-14.78 21.63-14.78 34.62z" fill="#3771c8"/><path d="m-223.56 989.38 314.82 131.27c6.75 2.81 10.17 11.49 7.51 19.9-2.66 8.42-10.37 13.28-17.12 10.47L-233.18 1019.76c-6.74-2.81-10.18-11.49-7.51-19.91 2.66-8.41 10.38-13.28 17.13-10.47z" fill="#aaccff"/><path d="M-286.18 1008.62c0 12.99 5.32 25.44 14.78 34.63 9.46 9.17 22.3 14.33 35.68 14.33 27.87 0 50.46-21.92 50.46-48.96s-22.59-48.95-50.46-48.95c-13.38 0-26.22 5.15-35.68 14.33-9.46 9.19-14.78 21.64-14.78 34.62z" fill="#3771c8"/><path d="m92.25 1133.04 336.76-392.95c4.76-5.56 14.19-5.88 21.27-.61s9.05 14.07 4.29 19.62L117.82 1152.04c-4.76 5.54-14.19 5.86-21.27.6s-9.06-14.05-4.3-19.6z" fill="#aaccff"/><path d="M51.31 1141.49c0 12.99 5.32 25.44 14.77 34.61 9.47 9.19 22.31 14.35 35.68 14.35 27.88 0 50.47-21.92 50.47-48.96s-22.59-48.96-50.47-48.96c-13.37 0-26.21 5.16-35.68 14.33-9.45 9.19-14.77 21.64-14.77 34.63z" fill="#3771c8"/><path d="M388.79 758.5c0 12.99 5.32 25.44 14.79 34.63 9.46 9.17 22.29 14.33 35.68 14.33 27.86 0 50.46-21.92 50.46-48.96s-22.6-48.95-50.46-48.95c-13.39 0-26.22 5.15-35.68 14.33-9.47 9.19-14.79 21.64-14.79 34.62z" fill="#3771c8"/><path d="m-833.02 1521.34 19.23 15.93c9.75 8.08 10.93 22.25 2.64 31.78l-349.1 401.3c-8.29 9.52-22.81 10.69-32.57 2.61l-19.23-15.93c-9.75-8.08-10.93-22.25-2.64-31.78l349.1-401.3c8.29-9.52 22.82-10.69 32.57-2.61z" fill="#ffb380"/><path d="M-387.2 1515.82c-54.38 62.51-131.77 101.57-215.13 108.58-83.36 7.02-165.86-18.6-229.37-71.2-63.5-52.6-102.8-127.87-109.25-209.27-6.45-81.4 20.48-162.25 74.86-224.76C-852.94 989.04-653.93 972.29-521.7 1102.46c63.5 52.6 102.8 127.88 109.25 209.28 6.45 81.39-20.48 162.24-74.86 224.75z" fill="#fff"/><path d="M-563.58 983c-118.75-23.74-247.37 15.18-331.64 112.05-122.57 140.9-105.92 352.21 37.47 470.98 143.39 118.76 359.78 100.47 482.36-40.43 122.57-140.9 105.92-352.22-37.47-470.98-44.8-37.1-96.75-60.84-150.72-71.62zm-11.1 51.08c45.44 9.12 89.2 29.18 127.04 60.53 121.09 100.3 135.24 277.63 31.32 397.09-103.92 119.45-285.54 134.64-406.63 34.34-121.1-100.3-135.24-277.63-31.32-397.08 71.45-82.12 179.62-114.98 279.6-94.88z" fill="#ffb380"/><path d="M-907.38 1607.06c-58.65-39.6-96.49 47.65-130.04 78.72-60.64 78.57-141.07 145.97-191.91 230.15-13.33 51.14 70.89 107.29 119.62 40.79 77.78-96.3 170.86-183.6 240.64-284.63 7.97-28.86-16.75-50.19-38.31-65.03z" fill="#ffb380"/></g><g transform="matrix(1.03 0 0 1.03 -3.56 -7.81)"><g transform="matrix(.3866 0 0 .3866 93.7 127.5)"><path d="M13.2 149.82-112.52 150c0 0-.46 38.12-.46 71.06 0 6.39 4.3 18.21 21.04 18.21l84.28-.01c17.02 0 20.86-12.57 20.86-19.06.01-36.88.01-70.4.01-70.4z" fill="#aaccff"/><path d="m13.2 214.36-125.72-.2c0 0-.46-38.12-.46-71.06 0-6.39 4.3-18.21 21.04-18.21l84.28.01c17.02 0 20.86 12.57 20.86 19.06.01 36.88.01 70.4.01 70.4z" fill="#3771c8"/><path d="m-13.66 164.02 26.05-.07c10.37-.03 10.28 23.41.12 23.31l-26.04-.25c-10.43-.1-9.92-22.97-.13-23z" fill="#aaccff"/><path d="M-3.99 175.46c-.02 1.48-.64 2.9-1.73 3.95-1.09 1.05-2.56 1.65-4.09 1.66-3.17.02-5.71-2.46-5.67-5.54.04-3.08 2.65-5.59 5.82-5.61 1.53-.01 2.98.57 4.05 1.6 1.06 1.04 1.65 2.45 1.62 3.94z" fill="#3771c8"/></g><g transform="translate(-214.68 -39.58)"><path d="M275.42 253.85a14.2 14.2 0 1 0 28.41 0 14.2 14.2 0 0 0-28.41 0z" fill="#f7c560"/><path d="M277.8 253.85a11.83 11.83 0 1 0 23.67 0 11.83 11.83 speechless 0 0 0-23.67 0z" fill="#f7c560"/><path d="M294.19 256.25c0 .7-.18 1.32-.54 1.87-.35.55-.87.99-1.56 1.3-.41.18-.86.31-1.36.39-.17.03.1 1.55-.2 1.72-.53.31-1.36.3-1.88 0-.25-.25.01-1.7-.17-1.73-.63-.1-1.17-.28-1.64-.55-.52-.31-.94-.72-1.27-1.23-.33-.52-.49-1.02-.49-1.5 0-.28.1-.52.29-.72.2-.2.45-.3.75-.3.25 0 .45.08.62.23.17.16.32.39.44.7.14.36.3.67.47.91.17.25.41.45.72.61.31.16.71.23 1.21.23.69 0 1.25-.16 1.68-.48.43-.32.65-.72.65-1.2 0-.38-.12-.69-.35-.92-.23-.24-.53-.42-.9-.55-.37-.12-.86-.26-1.47-.4-.83-.19-1.52-.42-2.08-.67-.55-.26-1-.61-1.32-1.06-.33-.45-.49-1-.49-1.67s.17-1.19.52-1.68c.34-.49.93-.94 1.4-1.18.47-.23 1.1-.29 1.3-.31.04 0 .01-1.35.07-1.74.11-.61 2.13-.45 2.05.1-.04.36-.02 1.6.05 1.65.3.08.52.13.75.21.52.17.95.4 1.29.7.34.28.58.59.74.9.16.32.24.63.24.93 0 .28-.1.53-.3.75-.19.22-.43.33-.72.33-.27 0-.47-.07-.61-.2-.14-.13-.28-.35-.45-.65-.2-.44-.46-.77-.75-1-.29-.25-.76-.37-1.41-.37-.6 0-1.08.13-1.45.4-.37.26-.55.57-.55.94 0 .23.06.43.19.6.12.16.3.31.51.43.22.12.44.21.67.28.22.07.59.17 1.11.3.65.15 1.23.32 1.75.5.53.18.98.4 1.34.66.37.26.66.59.86.99.21.4.31.89.31 1.47z" fill="#fff"/><path d="M277.8 253.85a11.83 11.83 0 1 0 23.67 0 11.83 11.83 0 0 0-23.67 0z" fill="#f7c560"/><path d="M294.19 256.25c0 .7-.18 1.32-.54 1.87-.35.55-.87.99-1.56 1.3-.41.18-.86.31-1.36.39-.17.03.1 1.55-.2 1.72-.53.31-1.36.3-1.88 0-.25-.25.01-1.7-.17-1.73-.63-.1-1.17-.28-1.64-.55-.52-.31-.94-.72-1.27-1.23-.33-.52-.49-1.02-.49-1.5 0-.28.1-.52.29-.72.2-.2.45-.3.75-.3.25 0 .45.08.62.23.17.16.32.39.44.7.14.36.3.67.47.91.17.25.41.45.72.61.31.16.71.23 1.21.23.69 0 1.25-.16 1.68-.48.43-.32.65-.72.65-1.2 0-.38-.12-.69-.35-.92-.23-.24-.53-.42-.9-.55-.37-.12-.86-.26-1.47-.4-.83-.19-1.52-.42-2.08-.67-.55-.26-1-.61-1.32-1.06-.33-.45-.49-1-.49-1.67s.17-1.19.52-1.68c.34-.49.93-.94 1.4-1.18.47-.23 1.1-.29 1.3-.31.04 0 .01-1.35.07-1.74.11-.61 2.13-.45 2.05.1-.04.36-.02 1.6.05 1.65.3.08.52.13.75.21.52.17.95.4 1.29.7.34.28.58.59.74.9.16.32.24.63.24.93 0 .28-.1.53-.3.75-.19.22-.43.33-.72.33-.27 0-.47-.07-.61-.2-.14-.13-.28-.35-.45-.65-.2-.44-.46-.77-.75-1-.29-.25-.76-.37-1.41-.37-.6 0-1.08.13-1.45.4-.37.26-.55.57-.55.94 0 .23.06.43.19.6.12.16.3.31.51.43.22.12.44.21.67.28.22.07.59.17 1.11.3.65.15 1.23.32 1.75.5.53.十八.98.4 1.34.66.37.26.66.59.86.99.21.4.31.89.31 1.47z" fill="#fff"/></g></g></svg>
